<?xml version="1.0" encoding="UTF-8" standalone="no"?>
<svg
   name="cloudy"
   class="DetailsSummary--wxIcon--kg5jB WxIcon--lightBG--W8gFc WxIcon--Icon--PemPL Icon--icon--ySD-o"
   viewBox="0 0 24 24"
   version="1.1"
   id="svg2"
   sodipodi:docname="cloudy.svg"
   inkscape:version="1.4 (86a8ad7, 2024-10-11)"
   xmlns:inkscape="http://www.inkscape.org/namespaces/inkscape"
   xmlns:sodipodi="http://sodipodi.sourceforge.net/DTD/sodipodi-0.dtd"
   xmlns="http://www.w3.org/2000/svg"
   xmlns:svg="http://www.w3.org/2000/svg">
  <defs
     id="defs1" />
  <sodipodi:namedview
     id="namedview1"
     pagecolor="#ffffff"
     bordercolor="#000000"
     borderopacity="0.25"
     inkscape:showpageshadow="2"
     inkscape:pageopacity="0.0"
     inkscape:pagecheckerboard="0"
     inkscape:deskcolor="#d1d1d1"
     inkscape:zoom="50.625"
     inkscape:cx="11.634568"
     inkscape:cy="14.014815"
     inkscape:window-width="3440"
     inkscape:window-height="1417"
     inkscape:window-x="1912"
     inkscape:window-y="-8"
     inkscape:window-maximized="1"
     inkscape:current-layer="svg2" />
  <path
     d="M17.2681 19.2907L17.2785 19.2906H17.4342L17.596 19.2692C18.7789 19.1128 19.6921 18.1105 19.6921 16.9012C19.6921 15.6784 18.7586 14.6677 17.5568 14.5283L15.9225 14.3388L15.7853 12.7223C15.5655 10.132 13.3602 8.09583 10.6745 8.09583C8.55894 8.09583 6.73802 9.35883 5.95415 11.1696L5.53134 12.1463L4.4725 12.3416C2.81889 12.6468 1.56766 14.0806 1.56766 15.7982C1.56766 17.7405 3.16495 19.315 5.13531 19.315C5.25074 19.315 5.36434 19.3097 5.47596 19.2993L17.2576 19.2906L17.2578 19.2906L17.2681 19.2907Z"
     id="path2"
     style="fill:#a1b6c3;stroke:none" />
</svg>
